<?xml version="1.0" encoding="utf-8"?>
<!-- Generator: Adobe Illustrator 16.0.0, SVG Export Plug-In . SVG Version: 6.00 Build 0)  -->
<!DOCTYPE svg PUBLIC "-//W3C//DTD SVG 1.1//EN" "http://www.w3.org/Graphics/SVG/1.1/DTD/svg11.dtd">
<svg version="1.1" id="Layer_1" xmlns="http://www.w3.org/2000/svg" xmlns:xlink="http://www.w3.org/1999/xlink" x="0px" y="0px"
	 width="36px" height="32px" viewBox="0 0 36 32" enable-background="new 0 0 36 32" xml:space="preserve">
<g>
	<path fill="#FFFFFF" d="M35.145,5.999c0,0.781-0.647,1.429-1.429,1.429H2.284c-0.781,0-1.429-0.647-1.429-1.429V3.142
		c0-0.781,0.647-1.429,1.429-1.429h31.432c0.781,0,1.429,0.647,1.429,1.429V5.999z M35.145,17.428c0,0.781-0.647,1.43-1.429,1.43
		H2.284c-0.781,0-1.429-0.648-1.429-1.43v-2.856c0-0.781,0.647-1.429,1.429-1.429h31.432c0.781,0,1.429,0.647,1.429,1.429V17.428z
		 M35.145,28.857c0,0.781-0.647,1.43-1.429,1.43H2.284c-0.781,0-1.429-0.648-1.429-1.43V26c0-0.781,0.647-1.428,1.429-1.428h31.432
		c0.781,0,1.429,0.646,1.429,1.428V28.857z"/>
</g>
</svg>
