<?xml version="1.0" encoding="utf-8"?>
<!-- Generator: Adobe Illustrator 16.0.0, SVG Export Plug-In . SVG Version: 6.00 Build 0)  -->
<!DOCTYPE svg PUBLIC "-//W3C//DTD SVG 1.1//EN" "http://www.w3.org/Graphics/SVG/1.1/DTD/svg11.dtd">
<svg version="1.1" id="Layer_1" xmlns="http://www.w3.org/2000/svg" xmlns:xlink="http://www.w3.org/1999/xlink" x="0px" y="0px"
	 width="120px" height="120px" viewBox="0 0 120 120" enable-background="new 0 0 120 120" xml:space="preserve">
<g>
	<g>
		<path fill="#39443F" d="M59.999,95.029c-19.312,0-35.027-15.715-35.027-35.029s15.715-35.027,35.027-35.027
			c19.316,0,35.029,15.713,35.029,35.027S79.315,95.029,59.999,95.029z M59.999,26.07C41.29,26.07,26.071,41.291,26.071,60
			S41.29,93.93,59.999,93.93S93.929,78.709,93.929,60S78.708,26.07,59.999,26.07z"/>
		<g>
			<g>
				<g>
					<circle fill="#FFFFFF" cx="60" cy="60" r="55.685"/>
					<path fill="#A0802E" d="M59.999,116.912C28.618,116.912,3.087,91.381,3.087,60S28.618,3.088,59.999,3.088
						c31.383,0,56.914,25.531,56.914,56.912S91.382,116.912,59.999,116.912z M59.999,5.545C29.972,5.545,5.544,29.975,5.544,60
						c0,30.027,24.428,54.457,54.455,54.457c30.029,0,54.457-24.43,54.457-54.457C114.456,29.975,90.028,5.545,59.999,5.545z"/>
				</g>
				<g>
					<g>
						<path fill="#39443F" d="M18.843,69.182l0.562,1.994c0.475,1.682-0.35,3.168-1.855,3.594l-0.016,0.004
							c-1.504,0.424-3.002-0.406-3.475-2.088l-0.564-1.994L18.843,69.182z M18.253,70.363l-3.637,1.027l0.297,1.055
							c0.318,1.123,1.281,1.641,2.328,1.346l0.016-0.004c1.045-0.295,1.611-1.246,1.293-2.369L18.253,70.363z"/>
						<path fill="#39443F" d="M21.134,76.205l0.387,0.896l-5.098,2.201l-0.389-0.896L21.134,76.205z"/>
						<path fill="#39443F" d="M22.606,79.5l0.465,0.777l-1.768,4.525l3.295-1.973l0.492,0.824l-4.764,2.852l-0.42-0.701l1.816-4.656
							l-3.391,2.029l-0.492-0.824L22.606,79.5z"/>
						<path fill="#39443F" d="M26.579,85.664l2.654,3.146l-0.666,0.564l-2.027-2.402l-1.104,0.932l1.799,2.131l-0.668,0.562
							l-1.797-2.129l-1.141,0.963l2.053,2.432l-0.666,0.562l-2.684-3.178L26.579,85.664z"/>
						<path fill="#39443F" d="M30.851,90.439l1.873,1.619c0.529,0.459,0.809,0.973,0.85,1.471c0.023,0.42-0.119,0.842-0.436,1.207
							l-0.01,0.012c-0.598,0.691-1.369,0.746-2.1,0.412l-0.24,2.572l-0.877-0.76l0.234-2.357l-0.926-0.799l-1.266,1.465
							l-0.738-0.639L30.851,90.439z M30.868,94.096c0.529,0.457,1.104,0.473,1.473,0.047l0.01-0.014
							c0.391-0.449,0.279-0.977-0.268-1.449l-1.076-0.93l-1.219,1.412L30.868,94.096z"/>
						<path fill="#39443F" d="M38.95,100.115l-1.355-0.697l0.402-0.783l1.357,0.695l0.688-1.342l0.805,0.414l-0.689,1.34
							l1.357,0.697l-0.404,0.783l-1.355-0.695l-0.691,1.348l-0.805-0.412L38.95,100.115z"/>
						<path fill="#39443F" d="M47.642,100.467l1.033,0.207l0.494,4.297l2.148-3.787l0.809,0.162l0.529,4.322l2.104-3.779
							l1.004,0.201l-2.984,5.105l-0.832-0.166l-0.559-4.182l-2.121,3.648l-0.824-0.166L47.642,100.467z"/>
						<path fill="#39443F" d="M57.687,102.129l0.975-0.014l0.037,2.309l2.652-0.043l-0.037-2.309l0.975-0.016l0.09,5.553
							l-0.977,0.018l-0.037-2.342l-2.652,0.043l0.039,2.34l-0.975,0.016L57.687,102.129z"/>
						<path fill="#39443F" d="M64.964,101.803l0.969-0.125l0.713,5.512l-0.969,0.125L64.964,101.803z"/>
						<path fill="#39443F" d="M69.345,105.957l0.4-0.818c0.627,0.314,1.213,0.438,1.875,0.271c0.586-0.148,0.885-0.52,0.783-0.916
							l-0.004-0.018c-0.096-0.383-0.365-0.537-1.422-0.516c-1.217,0.012-1.947-0.166-2.197-1.158l-0.004-0.016
							c-0.234-0.922,0.377-1.754,1.445-2.023c0.785-0.197,1.469-0.115,2.123,0.186l-0.326,0.844
							c-0.576-0.24-1.109-0.311-1.602-0.188c-0.553,0.139-0.807,0.506-0.717,0.859l0.006,0.016c0.104,0.416,0.396,0.537,1.496,0.523
							c1.209-0.01,1.896,0.25,2.121,1.143l0.004,0.018c0.254,1.006-0.389,1.807-1.518,2.092
							C70.985,106.461,70.136,106.373,69.345,105.957z"/>
						<path fill="#39443F" d="M74.493,99.596l0.896-0.385l1.096,2.57l1.334-3.605l1.109-0.473l-1.193,3.105l3.467,1.963
							l-1.096,0.465l-2.723-1.555l-0.447,1.156l0.631,1.482l-0.898,0.383L74.493,99.596z"/>
						<path fill="#39443F" d="M80.69,96.719l3.486-2.188l0.465,0.74l-2.662,1.668l0.766,1.223l2.361-1.479l0.463,0.74l-2.359,1.479
							l0.793,1.264l2.695-1.691l0.463,0.74l-3.521,2.209L80.69,96.719z"/>
						<path fill="#39443F" d="M89.452,94.629l-3.869-1.088l0.873-0.76l2.775,0.832l-0.424-2.879L89.651,90l0.527,3.967l1.453,1.67
							l-0.742,0.645L89.452,94.629z"/>
						<path fill="#39443F" d="M93.321,85.814l1.426-2.043c0.363-0.521,0.791-0.83,1.234-0.91c0.342-0.061,0.662,0.008,0.967,0.223
							l0.014,0.008c0.547,0.381,0.621,0.898,0.562,1.359c0.553-0.406,1.119-0.562,1.736-0.133l0.012,0.012
							c0.812,0.566,0.781,1.541,0.072,2.557l-1.471,2.109L93.321,85.814z M96.521,83.975c-0.357-0.25-0.781-0.117-1.139,0.396
							l-0.803,1.15l1.209,0.846l0.764-1.094c0.359-0.514,0.396-1-0.02-1.291L96.521,83.975z M97.351,85.57l-0.885,1.27l1.248,0.873
							l0.928-1.33c0.383-0.545,0.398-1.027-0.012-1.312l-0.014-0.01C98.233,84.793,97.79,84.939,97.351,85.57z"/>
						<path fill="#39443F" d="M97.86,78.334l0.387-0.82l6.104,0.182l-0.439,0.932l-1.455-0.062l-1.123,2.375l0.969,1.09
							l-0.428,0.904L97.86,78.334z M101.521,78.518l-2.42-0.082l1.604,1.812L101.521,78.518z"/>
						<path fill="#39443F" d="M99.968,73.414l0.664-2.385c0.188-0.674,0.533-1.145,0.967-1.395c0.369-0.203,0.811-0.252,1.277-0.121
							l0.016,0.004c0.879,0.244,1.26,0.918,1.268,1.721l2.428-0.881l-0.309,1.117l-2.234,0.795l-0.328,1.178l1.867,0.52
							l-0.262,0.939L99.968,73.414z M103.267,71.838c0.188-0.674-0.045-1.199-0.588-1.352l-0.016-0.004
							c-0.572-0.158-1.002,0.168-1.195,0.861l-0.383,1.369l1.797,0.502L103.267,71.838z"/>
					</g>
				</g>
				<g>
					<g>
						<path fill="#39443F" d="M16.815,44.893l-0.02-0.01c-2.059-1.014-2.98-3.395-1.885-5.619c0.67-1.365,1.529-1.959,2.521-2.305
							l0.672,1.59c-0.783,0.307-1.375,0.723-1.73,1.449c-0.602,1.219-0.02,2.598,1.223,3.209l0.02,0.012
							c1.24,0.611,2.699,0.264,3.311-0.979c0.406-0.828,0.324-1.498,0.088-2.322l1.525-0.51c0.428,1.139,0.518,2.211-0.172,3.607
							C21.319,45.146,18.896,45.918,16.815,44.893z"/>
						<path fill="#39443F" d="M23.825,26.865l2.734-2.477c0.762-0.689,1.545-1.01,2.293-0.973c0.637,0.031,1.24,0.338,1.752,0.902
							l0.016,0.018c0.875,0.965,0.902,2.043,0.398,3.016l3.395,0.812l-1.539,1.395l-3.016-0.756l-1.033,0.938l1.734,1.914
							l-1.316,1.193L23.825,26.865z M29.106,27.371c0.641-0.582,0.697-1.256,0.242-1.76l-0.016-0.018
							c-0.512-0.564-1.168-0.498-1.809,0.082l-1.307,1.184l1.557,1.719L29.106,27.371z"/>
						<path fill="#39443F" d="M39.104,16.205l1.629-0.709l3.221,7.404l-1.627,0.709L39.104,16.205z"/>
						<path fill="#39443F" d="M52.681,12.051l1.91-0.123l2.34,3.27l1.896-3.547l1.91-0.125l0.525,8.059l-1.762,0.115l-0.342-5.262
							l-2.045,3.59l-0.045,0.004l-2.465-3.262l0.338,5.225l-1.738,0.115L52.681,12.051z"/>
						<path fill="#39443F" d="M70.538,19.736l1.391-0.865c0.502,0.797,1.105,1.396,1.98,1.686c0.691,0.229,1.197,0.092,1.346-0.357
							l0.006-0.021c0.141-0.428-0.047-0.732-1.221-1.484c-1.414-0.904-2.27-1.66-1.766-3.184l0.006-0.02
							c0.457-1.391,1.879-1.943,3.445-1.426c1.117,0.369,1.953,1.033,2.525,1.914l-1.295,0.98c-0.523-0.695-1.098-1.199-1.744-1.412
							c-0.646-0.215-1.084-0.029-1.207,0.344l-0.006,0.021c-0.168,0.504,0.109,0.775,1.32,1.551c1.422,0.92,2.113,1.768,1.672,3.104
							l-0.008,0.021c-0.502,1.523-1.943,1.994-3.598,1.447C72.226,21.652,71.187,20.861,70.538,19.736z"/>
						<path fill="#39443F" d="M86.597,23.883l0.014-0.02c1.48-1.754,4.076-2.021,5.98-0.416c1.904,1.607,2.072,4.18,0.592,5.934
							l-0.014,0.018c-1.48,1.754-4.078,2.023-5.98,0.416C85.284,28.209,85.116,25.637,86.597,23.883z M91.735,28.219l0.014-0.018
							c0.893-1.059,0.861-2.594-0.232-3.516c-1.092-0.922-2.58-0.699-3.473,0.359l-0.016,0.018
							c-0.891,1.057-0.861,2.594,0.234,3.516C89.353,29.502,90.843,29.275,91.735,28.219z"/>
						<path fill="#39443F" d="M103.343,36.084l0.742,1.463l-2.719,5.623l4.432-2.252l0.793,1.564l-7.197,3.654l-0.684-1.348
							l2.805-5.809l-4.574,2.324l-0.795-1.562L103.343,36.084z"/>
					</g>
				</g>
			</g>
		</g>
		<path fill="#A0802E" d="M58.235,94.939c-0.484-0.025-0.857-0.438-0.832-0.92l0,0c0.021-0.484,0.436-0.863,0.918-0.836l0,0
			c0.482,0.027,0.861,0.439,0.834,0.922l0,0c-0.021,0.471-0.41,0.834-0.879,0.834l0,0C58.265,94.939,58.251,94.939,58.235,94.939z
			 M61.792,94.07c-0.039-0.486,0.324-0.908,0.807-0.945l0,0c0.482-0.037,0.904,0.326,0.943,0.811l0,0
			c0.035,0.482-0.324,0.902-0.807,0.943l0,0c-0.027,0-0.049,0-0.07,0l0,0C62.212,94.879,61.825,94.527,61.792,94.07z M53.763,94.426
			c0,0,0,0,0,0.004l0,0c-0.475-0.086-0.795-0.543-0.707-1.023l0,0c0.084-0.473,0.545-0.795,1.02-0.705l0,0
			c0.479,0.084,0.795,0.539,0.707,1.018l0,0c-0.076,0.428-0.443,0.725-0.861,0.725l0,0C53.868,94.443,53.815,94.436,53.763,94.426z
			 M66.147,93.562c-0.096-0.475,0.205-0.941,0.68-1.037l0,0c0.475-0.102,0.941,0.201,1.041,0.676l0,0
			c0.098,0.479-0.205,0.941-0.682,1.041l0,0c-0.061,0.014-0.117,0.018-0.178,0.018l0,0C66.601,94.26,66.235,93.979,66.147,93.562z
			 M49.397,93.348c-0.465-0.146-0.721-0.643-0.57-1.105l0,0c0.145-0.465,0.637-0.719,1.102-0.57l0,0
			c0.461,0.146,0.717,0.639,0.57,1.104l0,0c-0.117,0.373-0.465,0.609-0.838,0.609l0,0C49.575,93.385,49.485,93.373,49.397,93.348z
			 M70.407,92.498c-0.162-0.455,0.078-0.957,0.539-1.119l0,0c0.459-0.158,0.959,0.082,1.117,0.539l0,0
			c0.162,0.463-0.08,0.961-0.537,1.121l0,0c-0.096,0.035-0.191,0.049-0.289,0.049l0,0C70.874,93.088,70.534,92.857,70.407,92.498z
			 M45.2,91.707c-0.439-0.205-0.629-0.729-0.424-1.166l0,0c0.207-0.441,0.727-0.629,1.17-0.428l0,0
			c0.439,0.205,0.627,0.729,0.42,1.168l0,0c-0.148,0.322-0.465,0.51-0.793,0.51l0,0C45.444,91.791,45.323,91.764,45.2,91.707z
			 M74.491,90.893c-0.215-0.432-0.045-0.959,0.393-1.178l0,0c0.434-0.221,0.961-0.045,1.18,0.389l0,0
			c0.215,0.438,0.039,0.965-0.395,1.178l0,0c-0.123,0.066-0.258,0.098-0.393,0.098l0,0C74.956,91.379,74.646,91.197,74.491,90.893z
			 M41.255,89.539c-0.412-0.26-0.531-0.801-0.271-1.213l0,0c0.258-0.408,0.803-0.527,1.213-0.268l0,0
			c0.408,0.26,0.531,0.803,0.271,1.211l0,0c-0.168,0.264-0.451,0.41-0.742,0.41l0,0C41.563,89.68,41.401,89.635,41.255,89.539z
			 M78.335,88.775c-0.275-0.4-0.168-0.951,0.236-1.223v0.004c0.4-0.271,0.945-0.166,1.217,0.234l0,0
			c0.271,0.404,0.166,0.947-0.232,1.221l0,0l0,0l0,0c-0.152,0.102-0.326,0.148-0.492,0.148l0,0
			C78.782,89.16,78.501,89.029,78.335,88.775z M37.618,86.887c-0.373-0.312-0.426-0.865-0.113-1.24l0,0
			c0.312-0.367,0.865-0.42,1.238-0.107l0,0c0.375,0.311,0.422,0.859,0.109,1.238l0,0c-0.172,0.203-0.42,0.314-0.672,0.314l0,0
			C37.979,87.092,37.782,87.021,37.618,86.887z M81.874,86.178c-0.322-0.359-0.285-0.918,0.078-1.238h-0.004
			c0.363-0.318,0.924-0.283,1.242,0.08l0,0c0.322,0.365,0.287,0.918-0.078,1.238l0,0l0,0l0,0c-0.168,0.148-0.371,0.219-0.58,0.219
			l0,0C82.288,86.477,82.046,86.377,81.874,86.178z M34.353,83.789c-0.332-0.355-0.309-0.908,0.049-1.238l0,0
			c0.355-0.334,0.908-0.311,1.236,0.045l0,0c0.328,0.355,0.312,0.91-0.043,1.242l0,0c-0.172,0.154-0.387,0.234-0.598,0.234l0,0
			C34.759,84.072,34.522,83.979,34.353,83.789z M85.054,83.158c-0.363-0.322-0.4-0.879-0.08-1.24l0,0
			c0.316-0.363,0.875-0.404,1.238-0.082l0,0c0.365,0.32,0.4,0.875,0.08,1.242l0,0l0,0l0,0c-0.176,0.193-0.416,0.293-0.66,0.293l0,0
			C85.427,83.371,85.222,83.303,85.054,83.158z M31.511,80.303c-0.285-0.395-0.193-0.943,0.201-1.225l0,0
			c0.396-0.281,0.943-0.189,1.225,0.205l0,0c0.287,0.395,0.189,0.945-0.201,1.225l0,0c-0.156,0.111-0.334,0.164-0.508,0.164l0,0
			C31.948,80.672,31.681,80.545,31.511,80.303z M87.821,79.75c-0.404-0.271-0.51-0.818-0.236-1.223l0,0
			c0.27-0.398,0.814-0.508,1.219-0.236l0,0c0.398,0.273,0.506,0.816,0.236,1.221l0,0c-0.17,0.25-0.445,0.389-0.727,0.389l0,0
			C88.142,79.9,87.97,79.852,87.821,79.75z M29.136,76.482c-0.23-0.43-0.066-0.961,0.357-1.191l0,0
			c0.432-0.227,0.963-0.064,1.191,0.361l0,0c0.229,0.43,0.064,0.961-0.359,1.189l0,0c-0.131,0.07-0.277,0.105-0.412,0.105l0,0
			C29.597,76.947,29.292,76.777,29.136,76.482z M90.13,76.016c-0.434-0.219-0.609-0.746-0.391-1.182l0,0
			c0.215-0.434,0.744-0.605,1.178-0.391l0,0c0.436,0.217,0.609,0.742,0.389,1.178l0,0c-0.152,0.309-0.459,0.488-0.785,0.488l0,0
			C90.39,76.109,90.259,76.078,90.13,76.016z M27.272,72.391L27.272,72.391L27.272,72.391c-0.172-0.455,0.057-0.963,0.514-1.135l0,0
			c0.453-0.17,0.957,0.057,1.133,0.51l0,0c0.17,0.451-0.061,0.961-0.514,1.133l0,0c-0.102,0.039-0.207,0.059-0.312,0.059l0,0
			C27.743,72.957,27.409,72.74,27.272,72.391z M91.94,72.016c-0.459-0.158-0.699-0.658-0.541-1.119l0,0
			c0.158-0.457,0.658-0.697,1.115-0.541l0,0c0.461,0.158,0.703,0.658,0.545,1.115l0,0c-0.127,0.365-0.471,0.594-0.83,0.594l0,0
			C92.132,72.064,92.036,72.047,91.94,72.016z M25.954,68.086c-0.107-0.475,0.182-0.949,0.654-1.059l0,0
			c0.471-0.109,0.945,0.18,1.059,0.652l0,0c0.109,0.471-0.184,0.945-0.654,1.057l0,0c-0.064,0.018-0.135,0.025-0.201,0.025l0,0
			C26.413,68.762,26.052,68.49,25.954,68.086z M93.218,67.812c-0.475-0.102-0.781-0.566-0.682-1.039l0,0
			c0.098-0.475,0.562-0.783,1.037-0.682l0,0c0.475,0.098,0.781,0.562,0.68,1.041l0,0c0,0,0,0,0-0.004l0,0
			c-0.082,0.416-0.451,0.701-0.855,0.701l0,0C93.337,67.83,93.28,67.822,93.218,67.812z M25.204,63.645L25.204,63.645L25.204,63.645
			c-0.049-0.482,0.303-0.912,0.787-0.963l0,0c0.479-0.051,0.912,0.299,0.959,0.783l0,0c0.055,0.484-0.297,0.914-0.779,0.967l0,0
			c-0.031,0.004-0.062,0.004-0.092,0.004l0,0C25.634,64.436,25.253,64.096,25.204,63.645z M93.942,63.482
			c-0.488-0.035-0.852-0.457-0.812-0.939l0,0c0.035-0.482,0.457-0.848,0.943-0.812l0,0c0.482,0.039,0.844,0.461,0.811,0.943l0,0l0,0
			l0,0c-0.039,0.463-0.424,0.814-0.881,0.814l0,0C93.985,63.488,93.962,63.488,93.942,63.482z M25.021,60
			c0-0.486,0.391-0.879,0.877-0.879l0,0c0.484,0,0.879,0.393,0.879,0.879l0,0c0,0.486-0.395,0.879-0.879,0.879l0,0
			C25.411,60.879,25.021,60.486,25.021,60z M93.183,58.266c-0.027-0.484,0.348-0.895,0.828-0.922l0,0
			c0.488-0.025,0.898,0.346,0.924,0.834l0,0c0.027,0.482-0.346,0.895-0.83,0.922l0,0c-0.018,0-0.031,0-0.049,0l0,0
			C93.597,59.1,93.204,58.736,93.183,58.266z M26.062,56.492c-0.48-0.062-0.822-0.502-0.762-0.98l0,0c0,0,0,0,0.004,0l0,0
			c0.059-0.482,0.502-0.822,0.98-0.76l0,0c0.482,0.061,0.82,0.5,0.758,0.979l0,0c-0.057,0.445-0.434,0.77-0.867,0.77l0,0
			C26.14,56.5,26.099,56.5,26.062,56.492z M92.69,54.018c-0.09-0.479,0.229-0.934,0.707-1.021l0,0
			c0.475-0.084,0.932,0.23,1.02,0.713l0,0c0,0,0,0,0-0.006l0,0c0.088,0.479-0.229,0.934-0.707,1.023l0,0
			c-0.053,0.008-0.105,0.012-0.158,0.012l0,0C93.134,54.738,92.767,54.445,92.69,54.018z M26.788,52.166
			c-0.469-0.125-0.75-0.607-0.627-1.072l0,0c0.123-0.471,0.602-0.75,1.072-0.629l0,0c0.471,0.125,0.75,0.604,0.627,1.072l0,0
			c-0.105,0.395-0.461,0.654-0.848,0.654l0,0C26.94,52.191,26.864,52.184,26.788,52.166z M91.653,49.873L91.653,49.873
			c-0.148-0.461,0.105-0.957,0.566-1.102l0,0c0.467-0.15,0.963,0.105,1.109,0.566l0,0l0,0l0,0c0.146,0.459-0.111,0.957-0.574,1.105
			l0,0c-0.086,0.025-0.174,0.039-0.26,0.039l0,0C92.12,50.482,91.772,50.246,91.653,49.873z M28.067,47.961
			c-0.447-0.178-0.664-0.691-0.482-1.145l0,0c0,0,0,0,0,0.004l0,0c0.184-0.451,0.697-0.668,1.146-0.482l0,0
			c0.445,0.18,0.662,0.693,0.482,1.143v0.004c-0.141,0.338-0.471,0.543-0.818,0.543l0,0C28.286,48.027,28.177,48.006,28.067,47.961z
			 M90.091,45.895L90.091,45.895c-0.207-0.439-0.018-0.963,0.422-1.168l0,0c0.438-0.207,0.961-0.018,1.168,0.42l0,0l0,0l0,0
			c0.207,0.441,0.018,0.963-0.422,1.17l0,0c-0.117,0.057-0.246,0.082-0.369,0.082l0,0C90.556,46.398,90.239,46.215,90.091,45.895z
			 M29.88,43.963c-0.42-0.238-0.568-0.773-0.328-1.195l0,0c0.236-0.424,0.773-0.57,1.195-0.33l0,0
			c0.422,0.238,0.57,0.773,0.33,1.195l0,0c-0.16,0.285-0.459,0.443-0.766,0.443l0,0C30.165,44.076,30.019,44.041,29.88,43.963z
			 M88.032,42.152L88.032,42.152c-0.264-0.408-0.141-0.951,0.268-1.211l0,0c0.408-0.264,0.951-0.141,1.211,0.268l0,0l0,0l0,0
			c0.258,0.406,0.141,0.951-0.268,1.211l0,0c-0.145,0.098-0.309,0.143-0.469,0.143l0,0C88.483,42.562,88.198,42.416,88.032,42.152z
			 M32.19,40.234c-0.387-0.295-0.465-0.844-0.17-1.232l0,0c0,0,0,0-0.006,0l0,0c0.295-0.389,0.844-0.469,1.23-0.174l0,0
			c0.391,0.291,0.469,0.844,0.176,1.23l0,0c-0.172,0.229-0.436,0.35-0.703,0.35l0,0C32.532,40.408,32.349,40.352,32.19,40.234z
			 M85.505,38.705c-0.311-0.375-0.262-0.926,0.111-1.238l0,0c0.373-0.307,0.926-0.26,1.238,0.113l0,0l0,0l0,0
			c0.311,0.369,0.26,0.922-0.111,1.234l0,0c-0.166,0.135-0.363,0.207-0.566,0.207l0,0C85.927,39.021,85.677,38.912,85.505,38.705z
			 M34.962,36.826c-0.348-0.34-0.355-0.893-0.018-1.238l0,0c0,0,0,0,0.004-0.006l0,0c0.338-0.346,0.893-0.352,1.24-0.014l0,0
			c0.346,0.338,0.354,0.896,0.016,1.244l0,0c-0.17,0.176-0.398,0.264-0.627,0.264l0,0C35.358,37.076,35.132,36.992,34.962,36.826z
			 M82.558,35.609c-0.355-0.334-0.375-0.889-0.047-1.244l0,0c0.328-0.355,0.887-0.377,1.244-0.049l0,0
			c0.355,0.33,0.377,0.889,0.049,1.244l0,0c-0.178,0.186-0.41,0.281-0.646,0.281l0,0C82.94,35.842,82.731,35.762,82.558,35.609z
			 M38.146,33.805c-0.301-0.385-0.24-0.932,0.143-1.234l0,0c0.375-0.305,0.93-0.236,1.232,0.145l0,0
			c0.297,0.377,0.236,0.93-0.141,1.234l0,0c-0.162,0.127-0.355,0.189-0.549,0.189l0,0C38.573,34.139,38.317,34.023,38.146,33.805z
			 M79.243,32.912c-0.395-0.285-0.488-0.834-0.205-1.225l0,0c0.281-0.395,0.828-0.488,1.225-0.207l0,0l0,0l0,0
			c0.395,0.281,0.486,0.826,0.201,1.227l0,0c-0.166,0.236-0.438,0.369-0.715,0.369l0,0C79.573,33.076,79.397,33.023,79.243,32.912z
			 M41.687,31.213c-0.252-0.416-0.119-0.953,0.299-1.207l0,0c0.416-0.252,0.951-0.115,1.201,0.303l0,0
			c0.252,0.412,0.119,0.953-0.299,1.203l0,0c-0.139,0.088-0.297,0.127-0.445,0.127l0,0C42.144,31.639,41.849,31.484,41.687,31.213z
			 M75.606,30.658c-0.43-0.227-0.588-0.758-0.359-1.186l0,0c0.225-0.43,0.76-0.592,1.186-0.365l0,0l0,0l0,0
			c0.432,0.23,0.59,0.762,0.361,1.191l0,0c-0.16,0.295-0.461,0.467-0.775,0.467l0,0C75.878,30.766,75.739,30.73,75.606,30.658z
			 M45.528,29.096c-0.197-0.443,0.004-0.961,0.451-1.154l0,0c0.445-0.197,0.963,0.008,1.156,0.451l0,0
			c0.195,0.445-0.008,0.963-0.451,1.156l0,0c-0.115,0.053-0.234,0.074-0.352,0.074l0,0C45.995,29.623,45.669,29.426,45.528,29.096z
			 M71.712,28.898c-0.451-0.172-0.686-0.68-0.514-1.133l0,0c0.17-0.453,0.676-0.686,1.133-0.514l0,0
			c0.453,0.17,0.68,0.68,0.512,1.133l0,0c-0.135,0.35-0.467,0.566-0.824,0.566l0,0C71.917,28.951,71.813,28.932,71.712,28.898z
			 M49.612,27.494c-0.135-0.467,0.133-0.955,0.596-1.09l0,0c0,0,0,0,0,0.004l0,0c0.469-0.137,0.955,0.131,1.092,0.596l0,0
			c0.135,0.467-0.133,0.951-0.598,1.086v0.004c-0.084,0.023-0.162,0.035-0.246,0.035l0,0C50.073,28.129,49.722,27.879,49.612,27.494
			z M67.618,27.652c-0.471-0.111-0.764-0.586-0.654-1.057l0,0c0.111-0.475,0.584-0.768,1.059-0.652l0,0
			c0.471,0.109,0.766,0.584,0.65,1.053l0,0c-0.092,0.404-0.453,0.682-0.854,0.682l0,0C67.755,27.678,67.688,27.668,67.618,27.652z
			 M53.872,26.434c-0.074-0.479,0.25-0.924,0.734-1.004l0,0c0.479-0.07,0.926,0.258,1.002,0.736l0,0
			c0.074,0.479-0.256,0.928-0.734,1.002l0,0c-0.049,0.006-0.092,0.01-0.137,0.01l0,0C54.312,27.178,53.938,26.865,53.872,26.434z
			 M63.403,26.943l0.004,0.004c-0.488-0.051-0.84-0.482-0.785-0.965l0,0c0.047-0.484,0.477-0.834,0.959-0.781l0,0l0,0l0,0
			c0.486,0.049,0.836,0.479,0.787,0.961l0,0c-0.049,0.453-0.43,0.785-0.875,0.785l0,0C63.464,26.947,63.433,26.947,63.403,26.943z
			 M58.229,25.93c-0.01-0.482,0.371-0.887,0.855-0.902l0,0c0.484-0.012,0.887,0.371,0.9,0.857l0,0
			c0.014,0.484-0.369,0.889-0.852,0.9H59.13c-0.004,0-0.014,0-0.021,0l0,0C58.634,26.785,58.243,26.408,58.229,25.93z"/>
		<g>
			<g>
				<path fill="#B21F24" d="M70.185,65.859l-0.416,0.377c-2.883,2.621-5.318,4.139-9.232,4.139c-5.719,0-10.033-4.697-10.033-11.029
					c0-6.168,4.314-10.818,10.033-10.818c3.17,0,5.936,1.227,8.973,3.98l0.443,0.402l5.879-6.779l-0.393-0.387
					c-4.088-4.021-8.666-5.818-14.85-5.818c-11.219,0-19.68,8.395-19.68,19.525v0.104c0,11.07,8.326,19.42,19.367,19.42
					c6.502,0,10.975-1.949,15.441-6.725l0.383-0.412L70.185,65.859z"/>
			</g>
		</g>
	</g>
	<path fill="#A0802E" d="M84.714,53.191c0-0.518-0.414-0.945-0.953-1.023c-1.049-0.223-2.92,0.148-2.92,0.148
		c-0.34,0.055-0.621,0.066-0.871,0.064c-0.314-1.027-1.344-1.73-2.678-1.697c-1.805,0.047-3.059,1.336-2.727,2.893
		c0.18,0.828,0.623,1.578,1.164,2.107v1.756L61.38,58.83v1.732l14.35,1.391v3.982l0.912,1.229h1.26l0.859-1.156V62.24
		c0.613-0.014,1.236-0.217,3.711-0.541v-4.006c-2.475-0.322-3.098-0.527-3.711-0.541v-1.338c0.492-0.441,0.904-1.076,1.139-1.816
		c0.264-0.008,0.57,0.008,0.941,0.068c0,0,1.852,0.367,2.904,0.154C84.292,54.146,84.714,53.717,84.714,53.191z"/>
	<g>
		<path fill="#39443F" d="M101.579,60.104c0-0.076,0.027-0.143,0.082-0.193s0.117-0.078,0.189-0.078h0.783v-4.404l-0.559,0.566
			c-0.059,0.051-0.121,0.076-0.193,0.078s-0.135-0.025-0.189-0.078c-0.051-0.057-0.076-0.121-0.076-0.193
			c-0.002-0.07,0.023-0.133,0.076-0.188l1.027-1.023c0.08-0.084,0.178-0.104,0.287-0.061c0.109,0.049,0.162,0.135,0.162,0.256v5.047
			h0.779c0.076,0,0.143,0.027,0.191,0.078s0.074,0.117,0.074,0.193c0,0.074-0.025,0.137-0.074,0.191
			c-0.053,0.053-0.115,0.08-0.191,0.08h-2.098c-0.072,0-0.135-0.027-0.189-0.08C101.606,60.24,101.579,60.178,101.579,60.104z"/>
		<path fill="#39443F" d="M105.042,54.908c0-0.078,0.025-0.141,0.078-0.191c0.051-0.049,0.115-0.076,0.191-0.076h2.393
			c0.086,0,0.158,0.033,0.211,0.098c0.025,0.035,0.041,0.072,0.049,0.113s0.004,0.084-0.004,0.127l-1.527,5.271
			c-0.014,0.059-0.043,0.105-0.092,0.141s-0.1,0.053-0.158,0.053c-0.033,0-0.059-0.004-0.074-0.008
			c-0.07-0.023-0.125-0.07-0.16-0.135s-0.045-0.131-0.023-0.203l1.42-4.92h-2.033c-0.076,0-0.141-0.027-0.191-0.08
			C105.067,55.043,105.042,54.98,105.042,54.908z"/>
	</g>
	<g>
		<path fill="#39443F" d="M10.964,60.188c0-0.465,0.135-0.934,0.404-1.408c0.117-0.205,0.25-0.4,0.395-0.59l0.439-0.549l0.354-0.447
			c0.115-0.143,0.217-0.291,0.303-0.441c0.09-0.15,0.16-0.299,0.215-0.447c0.053-0.146,0.08-0.297,0.08-0.453
			c0-0.006,0.002-0.01,0.008-0.014v-0.076c0-0.045-0.008-0.1-0.021-0.164c-0.014-0.066-0.035-0.133-0.066-0.203
			c-0.027-0.072-0.072-0.139-0.131-0.201c-0.117-0.133-0.305-0.199-0.566-0.199c-0.244,0-0.424,0.062-0.539,0.191
			c-0.049,0.059-0.084,0.123-0.105,0.197c-0.02,0.072-0.035,0.141-0.047,0.203c-0.012,0.078-0.012,0.15,0,0.221
			c0.01,0.062,0.006,0.123-0.008,0.178c-0.01,0.045-0.031,0.086-0.064,0.125s-0.082,0.061-0.148,0.064
			c-0.072,0.012-0.127,0-0.162-0.029c-0.035-0.031-0.066-0.066-0.094-0.109c-0.025-0.045-0.043-0.096-0.053-0.154
			c-0.004-0.008-0.01-0.047-0.012-0.113c-0.004-0.066,0.002-0.148,0.012-0.246c0.029-0.287,0.123-0.516,0.277-0.689
			c0.225-0.25,0.539-0.373,0.943-0.373c0.41,0,0.734,0.123,0.971,0.373c0.094,0.098,0.164,0.201,0.211,0.311
			c0.047,0.111,0.082,0.217,0.105,0.316c0.021,0.1,0.035,0.186,0.035,0.258v0.143c0,0.357-0.117,0.736-0.352,1.137
			c-0.105,0.17-0.219,0.336-0.344,0.5l-0.391,0.484l-0.361,0.449c-0.121,0.154-0.232,0.311-0.33,0.469
			c-0.102,0.16-0.188,0.326-0.258,0.494s-0.121,0.344-0.146,0.531h1.307c0.191,0,0.305-0.031,0.344-0.094
			c0.029-0.041,0.049-0.102,0.059-0.184c0.006-0.084,0.01-0.164,0.01-0.242c0-0.076,0.025-0.141,0.078-0.189
			c0.051-0.051,0.117-0.076,0.195-0.076c0.072,0,0.135,0.025,0.186,0.076c0.051,0.053,0.076,0.115,0.076,0.189
			c0,0.154-0.01,0.289-0.029,0.412c-0.02,0.119-0.066,0.229-0.139,0.326c-0.051,0.074-0.107,0.131-0.17,0.172
			c-0.064,0.041-0.133,0.074-0.205,0.096s-0.143,0.035-0.211,0.041c-0.068,0.004-0.135,0.008-0.193,0.008h-1.59
			c-0.076,0-0.141-0.027-0.193-0.082C10.989,60.324,10.964,60.26,10.964,60.188z"/>
		<path fill="#39443F" d="M14.823,59.162v-0.139v-3.092c0-0.24,0.037-0.449,0.111-0.625c0.072-0.18,0.17-0.324,0.295-0.439
			c0.121-0.115,0.258-0.201,0.408-0.256c0.152-0.059,0.305-0.086,0.459-0.086c0.1,0,0.229,0.018,0.393,0.053
			c0.164,0.037,0.324,0.125,0.482,0.262c0.027,0.025,0.062,0.055,0.096,0.092c0.033,0.035,0.064,0.078,0.096,0.123
			c0.004,0.004,0.006,0.01,0.006,0.01c0,0.004,0.004,0.008,0.014,0.012c0.066,0.098,0.123,0.217,0.166,0.359
			c0.047,0.141,0.07,0.309,0.07,0.502v3.139c0,0.02-0.002,0.068-0.006,0.145c-0.004,0.078-0.014,0.17-0.037,0.275
			c-0.023,0.104-0.059,0.215-0.111,0.334c-0.051,0.115-0.121,0.223-0.217,0.322c-0.232,0.248-0.549,0.373-0.941,0.373
			c-0.396,0-0.707-0.125-0.93-0.373c-0.074-0.074-0.137-0.166-0.193-0.279c0-0.01-0.004-0.02-0.014-0.029
			c-0.057-0.123-0.1-0.268-0.123-0.439C14.831,59.309,14.823,59.23,14.823,59.162z M15.36,58.625l1.281-3.354
			c-0.102-0.098-0.209-0.156-0.318-0.178s-0.186-0.031-0.227-0.031c-0.188,0-0.352,0.061-0.488,0.184
			c-0.166,0.152-0.248,0.381-0.248,0.686V58.625z M15.513,59.719c0.01,0.01,0.021,0.023,0.029,0.037
			c0.012,0.014,0.021,0.025,0.031,0.035c0.117,0.133,0.293,0.199,0.533,0.199c0.232,0,0.418-0.066,0.551-0.199
			c0.062-0.062,0.105-0.133,0.139-0.211c0.029-0.08,0.051-0.152,0.064-0.223c0.014-0.068,0.02-0.127,0.02-0.178v-0.078v-0.025V56.16
			L15.513,59.719z"/>
	</g>
</g>
</svg>
